<svg width="36" height="36" viewBox="0 0 36 36" fill="none" xmlns="http://www.w3.org/2000/svg">
<path d="M26.6522 22.5C26.3913 22.2391 26.0652 22.1087 25.6739 22.1087C25.3043 22.1087 24.9891 22.2391 24.7283 22.5L18.9239 28.3043V4.40217C18.9239 4.01087 18.7826 3.68478 18.5 3.42391C18.2391 3.1413 17.913 3 17.5217 3C17.1522 3 16.8261 3.1413 16.5435 3.42391C16.2826 3.68478 16.1522 4.01087 16.1522 4.40217V28.3043L10.3478 22.5C10.0652 22.2391 9.73913 22.1087 9.36957 22.1087C9 22.1087 8.67391 22.2391 8.3913 22.5C8.13043 22.7609 8 23.087 8 23.4783C8 23.8478 8.13043 24.163 8.3913 24.4239L16.5761 32.5761C16.837 32.8587 17.1522 33 17.5217 33C17.913 33 18.2391 32.8587 18.5 32.5761L26.6522 24.4239C26.913 24.163 27.0435 23.8478 27.0435 23.4783C27.0435 23.087 26.913 22.7609 26.6522 22.5Z" fill="black"/>
</svg>
