<svg width="36" height="36" viewBox="0 0 36 36" fill="none" xmlns="http://www.w3.org/2000/svg">
    <path
        d="M8.39177 13.5C8.65264 13.7609 8.97873 13.8913 9.37003 13.8913C9.7396 13.8913 10.0548 13.7609 10.3157 13.5L16.12 7.69565L16.12 31.5978C16.12 31.9891 16.2613 32.3152 16.5439 32.5761C16.8048 32.8587 17.1309 33 17.5222 33C17.8918 33 18.2179 32.8587 18.5005 32.5761C18.7613 32.3152 18.8918 31.9891 18.8918 31.5978L18.8918 7.69565L24.6961 13.5C24.9787 13.7609 25.3048 13.8913 25.6744 13.8913C26.0439 13.8913 26.37 13.7609 26.6526 13.5C26.9135 13.2391 27.0439 12.913 27.0439 12.5217C27.0439 12.1522 26.9135 11.837 26.6526 11.5761L18.4679 3.42391C18.207 3.1413 17.8918 3 17.5222 3C17.1309 3 16.8048 3.1413 16.5439 3.42391L8.39177 11.5761C8.1309 11.837 8.00047 12.1522 8.00047 12.5217C8.00047 12.913 8.1309 13.2391 8.39177 13.5Z"
        fill="black" />
</svg>