<svg width="24" height="24" viewBox="0 0 24 24" fill="none" xmlns="http://www.w3.org/2000/svg">
<path d="M21.6538 14.32L20.5838 13.49C20.6038 13.33 20.6237 13.17 20.6237 13C20.6237 12.83 20.6138 12.67 20.5838 12.51L21.6438 11.68C21.7338 11.6 21.7637 11.47 21.7037 11.36L20.7037 9.63C20.6437 9.52 20.5138 9.48 20.3938 9.52L19.1538 10.02C18.8938 9.82 18.6138 9.65 18.3038 9.53L18.1137 8.21C18.1037 8.09 17.9938 8 17.8738 8H15.8737C15.7537 8 15.6437 8.09 15.6237 8.21L15.4337 9.53C15.1337 9.66 14.8438 9.82 14.5838 10.02L13.3438 9.52C13.2338 9.48 13.1037 9.52 13.0337 9.63L12.0337 11.36C11.9737 11.47 11.9938 11.6 12.0938 11.68L13.1538 12.51C13.1338 12.67 13.1237 12.83 13.1237 13C13.1237 13.17 13.1338 13.33 13.1538 13.49L12.0938 14.32C12.0038 14.4 11.9737 14.53 12.0337 14.64L13.0337 16.37C13.0937 16.48 13.2238 16.52 13.3438 16.48L14.5838 15.98C14.8438 16.18 15.1237 16.35 15.4337 16.47L15.6237 17.79C15.6437 17.91 15.7437 18 15.8737 18H17.8738C17.9938 18 18.1038 17.91 18.1238 17.79L18.3138 16.47C18.6138 16.34 18.9038 16.18 19.1538 15.98L20.4038 16.48C20.5138 16.52 20.6437 16.48 20.7137 16.37L21.7137 14.64C21.7737 14.53 21.7438 14.4 21.6538 14.32ZM16.8738 14.5C16.0438 14.5 15.3737 13.83 15.3737 13C15.3737 12.17 16.0438 11.5 16.8738 11.5C17.7038 11.5 18.3738 12.17 18.3738 13C18.3738 13.83 17.7038 14.5 16.8738 14.5Z" fill="black"/>
<path d="M21 6H3C2.45 6 2 5.55 2 5C2 4.45 2.45 4 3 4H21C21.55 4 22 4.45 22 5C22 5.55 21.55 6 21 6Z" fill="black"/>
<path d="M3.33333 18H8.66667C9.4 18 10 17.55 10 17C10 16.45 9.4 16 8.66667 16H3.33333C2.6 16 2 16.45 2 17C2 17.55 2.6 18 3.33333 18Z" fill="black"/>
<path d="M3.33333 12H8.66667C9.4 12 10 11.55 10 11C10 10.45 9.4 10 8.66667 10H3.33333C2.6 10 2 10.45 2 11C2 11.55 2.6 12 3.33333 12Z" fill="black"/>
</svg>
