<svg width="36" height="36" viewBox="0 0 36 36" fill="none" xmlns="http://www.w3.org/2000/svg">
<path d="M14.2075 26.9658C14.559 26.9658 14.8519 26.8487 15.0862 26.6143C15.3206 26.38 15.4378 26.0871 15.4378 25.7356V4.23515C15.4378 4.00081 15.3792 3.786 15.262 3.59072C15.1448 3.39544 14.9788 3.23922 14.764 3.12205C14.5688 3.02441 14.3539 2.98535 14.1196 3.00488C13.8853 3.02441 13.6705 3.11229 13.4752 3.26851L5.50773 9.2441C5.23434 9.43938 5.06835 9.70301 5.00976 10.035C4.97071 10.367 5.04882 10.6697 5.2441 10.943C5.45891 11.236 5.7323 11.402 6.06428 11.441C6.39626 11.4801 6.69894 11.402 6.97234 11.2067L13.0065 6.6664V25.7356C13.0065 26.0871 13.1237 26.38 13.358 26.6143C13.5924 26.8487 13.8755 26.9658 14.2075 26.9658ZM22.1749 9.2441C21.8234 9.2441 21.5305 9.37103 21.2962 9.6249C21.0618 9.85924 20.9447 10.1424 20.9447 10.4744V31.7697C20.9447 32.0041 21.0033 32.2189 21.1204 32.4142C21.2376 32.6094 21.4036 32.7657 21.6184 32.8828C21.6965 32.9219 21.7844 32.9512 21.882 32.9707C21.9797 32.9902 22.0773 33 22.1749 33C22.2921 33 22.4093 32.9805 22.5264 32.9414C22.6631 32.9024 22.7901 32.8438 22.9072 32.7657L30.8747 26.8779C31.1481 26.6631 31.3043 26.3897 31.3434 26.0578C31.402 25.7258 31.3336 25.4231 31.1383 25.1497C30.943 24.8763 30.6794 24.7201 30.3474 24.681C30.0155 24.6225 29.7128 24.6908 29.4394 24.8861L23.3759 29.3678V10.4744C23.3759 10.1424 23.2587 9.85924 23.0244 9.6249C22.7901 9.37103 22.5069 9.2441 22.1749 9.2441Z" fill="black"/>
</svg>
